<svg id="svg" version="1.1" width="400" height="397.2841901066925" xmlns="http://www.w3.org/2000/svg" xmlns:xlink="http://www.w3.org/1999/xlink" style="display: block;"><g id="svgg"><path id="path0" d="M50.211 67.022 C 28.890 89.808,14.256 114.410,5.081 142.897 C 1.050 155.411,1.155 154.636,1.229 171.360 C 1.265 179.430,1.353 185.335,1.425 184.481 C 5.338 137.855,24.354 94.005,53.877 63.531 C 55.065 62.304,55.932 61.300,55.802 61.300 C 55.672 61.300,53.156 63.875,50.211 67.022 M79.534 173.222 L 79.534 229.680 85.950 229.680 L 92.366 229.680 92.255 180.989 C 92.194 154.209,92.231 132.306,92.338 132.316 C 92.444 132.325,93.143 133.635,93.889 135.225 C 94.636 136.816,108.516 158.715,124.733 183.889 L 154.219 229.660 162.270 229.670 L 170.320 229.680 170.320 173.230 L 170.320 116.780 163.698 116.780 L 157.075 116.780 157.281 162.464 C 157.394 187.590,157.591 209.282,157.720 210.669 L 157.954 213.191 156.214 210.281 C 155.257 208.681,141.476 187.032,125.590 162.173 L 96.707 116.974 88.121 116.869 L 79.534 116.765 79.534 173.222 M199.806 173.230 L 199.806 229.680 229.874 229.680 L 259.942 229.680 259.942 223.472 L 259.942 217.265 236.663 217.265 L 213.385 217.265 213.385 197.672 L 213.385 178.080 233.754 178.080 L 254.122 178.080 254.122 172.066 L 254.122 166.052 233.754 166.052 L 213.385 166.052 213.385 147.236 L 213.385 128.419 235.306 128.419 L 257.226 128.419 257.226 122.599 L 257.226 116.780 228.516 116.780 L 199.806 116.780 199.806 173.230 M270.417 122.599 L 270.417 128.419 286.518 128.419 L 302.619 128.419 302.619 179.049 L 302.619 229.680 309.214 229.680 L 315.810 229.680 315.810 179.049 L 315.810 128.419 332.299 128.419 L 348.788 128.419 348.788 122.599 L 348.788 116.780 309.602 116.780 L 270.417 116.780 270.417 122.599 M1.229 231.651 L 1.164 252.050 2.532 257.063 C 20.841 324.141,74.401 377.690,141.412 395.914 L 146.452 397.284 166.825 397.219 C 178.029 397.183,186.499 397.095,185.645 397.024 C 85.163 388.591,9.857 313.285,1.425 212.803 C 1.353 211.950,1.265 220.431,1.229 231.651 M43.634 214.316 C 38.074 216.738,36.762 224.190,41.127 228.555 C 47.529 234.957,58.185 228.319,55.325 219.710 C 53.797 215.108,47.978 212.424,43.634 214.316 M144.908 256.674 C 119.034 262.376,117.133 302.487,142.434 308.885 C 147.890 310.265,156.251 309.563,161.581 307.279 L 163.337 306.526 163.337 303.818 L 163.337 301.110 161.168 302.103 C 145.287 309.373,130.747 300.440,130.747 283.414 C 130.747 266.326,145.984 256.222,161.229 263.202 L 163.337 264.167 163.337 261.127 L 163.337 258.087 160.136 257.214 C 155.946 256.071,148.795 255.818,144.908 256.674 M185.063 270.841 C 166.352 274.468,165.599 304.127,184.093 309.074 C 196.179 312.307,207.206 302.932,207.171 289.453 C 207.136 276.436,197.603 268.410,185.063 270.841 M252.119 271.528 C 236.754 276.592,235.629 302.794,250.533 308.454 C 255.208 310.229,262.408 309.766,267.237 307.379 L 269.447 306.286 269.562 303.663 L 269.677 301.040 267.622 302.188 C 257.618 307.777,247.229 303.871,246.455 294.229 L 246.257 291.756 259.307 291.756 L 272.357 291.756 272.352 288.167 C 272.336 275.553,263.057 267.923,252.119 271.528 M229.292 271.810 C 227.418 272.619,225.156 274.893,223.924 277.207 L 222.890 279.146 222.779 275.364 L 222.668 271.581 219.773 271.581 L 216.877 271.581 216.877 290.204 L 216.877 308.826 219.761 308.826 L 222.645 308.826 222.776 297.090 C 222.921 284.147,223.091 283.142,225.768 279.447 C 227.688 276.796,231.466 275.641,234.627 276.738 L 236.275 277.310 236.275 274.487 C 236.275 272.271,236.144 271.613,235.662 271.429 C 234.517 270.989,230.657 271.220,229.292 271.810 M194.648 276.856 C 200.648 279.745,203.221 290.196,199.861 298.029 C 195.731 307.658,181.472 306.978,177.714 296.974 C 172.773 283.819,183.253 271.369,194.648 276.856 M262.330 277.223 C 264.341 278.636,266.016 281.716,266.384 284.675 L 266.637 286.712 256.347 286.712 L 246.057 286.712 246.414 285.126 C 248.138 277.452,256.646 273.228,262.330 277.223 M334.807 344.811 L 332.687 347.042 334.918 344.921 C 336.990 342.951,337.326 342.580,337.038 342.580 C 336.978 342.580,335.974 343.584,334.807 344.811 M330.375 348.648 C 301.140 375.543,258.428 393.292,213.967 397.024 C 213.113 397.095,219.120 397.183,227.314 397.219 L 242.213 397.284 247.159 395.921 C 277.942 387.434,311.386 368.584,330.732 348.815 C 333.119 346.376,332.937 346.291,330.375 348.648 " stroke="none" fill="#ffffff" fill-rule="evenodd"></path><path id="path1" d="M185.645 0.240 C 141.613 4.512,107.126 18.003,75.640 43.271 C 69.439 48.248,55.024 61.396,57.614 59.714 C 58.041 59.437,59.222 58.418,60.240 57.450 L 62.090 55.689 109.609 103.208 L 157.129 150.726 157.129 133.559 L 157.129 116.392 163.919 116.392 L 170.708 116.392 170.708 140.351 L 170.708 164.310 185.257 178.855 L 199.806 193.401 199.806 154.896 L 199.806 116.392 228.516 116.392 L 257.226 116.392 257.226 122.599 L 257.226 128.807 235.306 128.807 L 213.385 128.807 213.385 147.430 L 213.385 166.052 233.948 166.052 L 254.510 166.052 254.510 172.066 L 254.510 178.080 233.948 178.080 L 213.385 178.080 213.385 192.526 L 213.385 206.973 218.520 212.119 L 223.656 217.265 241.993 217.265 L 260.330 217.265 260.330 223.472 L 260.330 229.680 248.206 229.680 L 236.083 229.680 289.421 283.019 L 342.759 336.358 340.999 338.208 C 340.030 339.226,339.011 340.407,338.734 340.834 C 337.052 343.424,350.200 329.009,355.177 322.808 C 396.136 271.770,409.222 202.319,389.720 139.476 C 366.326 64.091,301.329 10.494,221.726 0.947 C 216.591 0.331,190.063 -0.188,185.645 0.240 M348.788 122.599 L 348.788 128.807 332.493 128.807 L 316.198 128.807 316.198 179.243 L 316.198 229.680 309.408 229.680 L 302.619 229.680 302.619 179.243 L 302.619 128.807 286.324 128.807 L 270.029 128.807 270.029 122.599 L 270.029 116.392 309.408 116.392 L 348.788 116.392 348.788 122.599 " stroke="none" fill="#5c2d91" fill-rule="evenodd"></path><path id="path2" d="M57.579 60.040 C 2.518 114.310,-14.222 202.948,16.786 276.043 C 61.943 382.492,187.890 428.079,290.786 375.217 C 309.139 365.788,329.422 350.935,340.300 338.959 L 342.708 336.308 289.395 282.994 L 236.083 229.680 217.944 229.680 L 199.806 229.680 199.806 211.540 L 199.806 193.401 185.257 178.855 L 170.708 164.310 170.708 196.995 L 170.708 229.680 162.270 229.664 L 153.831 229.648 124.345 183.864 C 108.128 158.683,94.336 136.997,93.695 135.674 L 92.532 133.269 92.644 181.474 L 92.757 229.680 85.952 229.680 L 79.146 229.680 79.146 173.036 L 79.146 116.392 87.973 116.411 L 96.799 116.431 119.690 152.334 C 142.724 188.462,156.217 209.664,156.935 210.860 C 157.195 211.293,157.286 201.499,157.210 181.117 L 157.097 150.727 109.684 103.298 C 83.607 77.211,62.168 55.868,62.042 55.868 C 61.916 55.868,59.908 57.746,57.579 60.040 M213.385 212.221 L 213.385 217.265 218.520 217.265 L 223.655 217.265 218.623 212.221 C 215.855 209.447,213.544 207.177,213.488 207.177 C 213.431 207.177,213.385 209.447,213.385 212.221 M50.645 214.114 C 54.173 215.716,56.668 220.223,56.017 223.817 C 54.173 233.992,39.714 233.704,38.232 223.463 C 37.273 216.836,44.558 211.349,50.645 214.114 M159.263 256.639 C 163.913 257.841,163.725 257.641,163.725 261.347 C 163.725 263.135,163.630 264.597,163.515 264.597 C 163.400 264.597,162.600 264.238,161.738 263.798 C 149.475 257.542,135.123 263.800,131.750 276.875 C 126.799 296.063,143.237 310.125,160.936 301.843 C 163.990 300.414,163.899 300.335,163.482 304.057 L 163.143 307.081 160.233 308.109 C 141.554 314.712,125.087 304.293,124.252 285.344 C 123.362 265.150,139.856 251.627,159.263 256.639 M192.973 270.408 C 202.001 271.886,207.331 279.013,207.345 289.622 C 207.379 315.666,171.728 317.352,170.440 291.368 C 169.750 277.443,179.658 268.227,192.973 270.408 M262.177 271.134 C 268.785 273.191,272.247 278.567,272.646 287.391 L 272.843 291.756 259.566 291.756 L 246.290 291.756 246.555 293.792 C 247.913 304.245,258.703 307.774,268.768 301.056 L 270.029 300.215 270.029 303.294 L 270.029 306.373 267.798 307.466 C 253.162 314.637,239.790 306.579,239.772 290.576 C 239.756 276.596,250.308 267.440,262.177 271.134 M235.662 271.041 C 236.154 271.229,236.275 271.919,236.275 274.512 L 236.275 277.749 234.823 277.142 C 230.903 275.504,227.024 277.347,224.761 281.925 L 223.278 284.923 223.156 296.875 L 223.034 308.826 219.761 308.826 L 216.489 308.826 216.489 290.204 L 216.489 271.581 219.787 271.581 L 223.084 271.581 223.093 274.782 C 223.102 277.907,223.116 277.954,223.689 276.793 C 225.880 272.352,231.742 269.536,235.662 271.041 M185.143 276.584 C 182.076 277.643,180.428 279.179,178.661 282.623 L 177.110 285.649 177.110 290.351 C 177.110 299.508,181.274 304.358,189.137 304.358 C 196.385 304.358,200.354 300.093,200.864 291.756 C 201.558 280.415,194.308 273.418,185.143 276.584 M252.655 277.237 C 249.802 278.659,247.468 281.898,246.596 285.645 L 246.348 286.712 256.303 286.712 L 266.257 286.712 266.028 284.772 C 265.183 277.642,258.922 274.114,252.655 277.237 " stroke="none" fill="#6d429c" fill-rule="evenodd"></path><path id="path3" d="M53.710 63.725 L 52.570 64.985 53.831 63.846 C 55.007 62.784,55.270 62.464,54.971 62.464 C 54.904 62.464,54.337 63.031,53.710 63.725 M224.124 128.710 C 230.137 128.770,240.088 128.770,246.238 128.710 C 252.388 128.650,247.468 128.601,235.306 128.601 C 223.143 128.600,218.111 128.650,224.124 128.710 M278.080 128.710 C 282.614 128.772,290.034 128.772,294.568 128.710 C 299.103 128.648,295.393 128.597,286.324 128.597 C 277.255 128.597,273.545 128.648,278.080 128.710 M315.989 128.904 C 315.887 129.171,315.850 151.998,315.906 179.631 L 316.007 229.874 316.102 179.345 L 316.198 128.815 332.590 128.710 L 348.982 128.604 332.578 128.512 C 319.743 128.439,316.133 128.525,315.989 128.904 M254.279 172.066 C 254.280 175.480,254.339 176.825,254.411 175.054 C 254.483 173.284,254.483 170.490,254.410 168.847 C 254.338 167.203,254.279 168.652,254.279 172.066 M1.275 187.973 C 1.278 189.040,1.353 189.430,1.442 188.840 C 1.531 188.251,1.529 187.378,1.437 186.901 C 1.345 186.423,1.272 186.906,1.275 187.973 M1.275 209.311 C 1.278 210.378,1.353 210.769,1.442 210.179 C 1.531 209.589,1.529 208.716,1.437 208.239 C 1.345 207.762,1.272 208.244,1.275 209.311 M260.100 223.472 C 260.100 226.993,260.159 228.434,260.230 226.673 C 260.302 224.913,260.302 222.032,260.230 220.272 C 260.159 218.511,260.100 219.952,260.100 223.472 M38.111 222.308 C 38.111 223.055,38.191 223.361,38.289 222.987 C 38.386 222.614,38.386 222.003,38.289 221.629 C 38.191 221.256,38.111 221.562,38.111 222.308 M149.661 255.958 C 150.567 256.040,152.051 256.040,152.958 255.958 C 153.865 255.876,153.123 255.810,151.309 255.810 C 149.496 255.810,148.754 255.876,149.661 255.958 M163.268 261.301 C 163.199 263.115,163.274 264.599,163.434 264.598 C 163.594 264.598,163.725 263.113,163.725 261.300 C 163.725 257.038,163.430 257.039,163.268 261.301 M188.465 270.310 C 189.162 270.397,190.210 270.395,190.793 270.306 C 191.376 270.218,190.805 270.147,189.525 270.149 C 188.244 270.151,187.767 270.224,188.465 270.310 M256.547 276.116 C 256.920 276.214,257.532 276.214,257.905 276.116 C 258.278 276.019,257.973 275.939,257.226 275.939 C 256.479 275.939,256.174 276.019,256.547 276.116 M130.867 283.414 C 130.869 284.694,130.942 285.171,131.028 284.474 C 131.114 283.777,131.113 282.729,131.024 282.146 C 130.936 281.563,130.865 282.134,130.867 283.414 M207.305 289.622 C 207.307 291.115,207.377 291.679,207.461 290.874 C 207.545 290.069,207.543 288.847,207.458 288.158 C 207.372 287.469,207.303 288.128,207.305 289.622 M163.442 302.231 C 163.442 303.191,163.518 303.584,163.610 303.104 C 163.703 302.624,163.703 301.838,163.610 301.358 C 163.518 300.878,163.442 301.271,163.442 302.231 M255.965 309.883 C 256.659 309.969,257.793 309.969,258.487 309.883 C 259.180 309.797,258.613 309.727,257.226 309.727 C 255.839 309.727,255.272 309.797,255.965 309.883 M334.602 344.617 L 333.463 345.878 334.724 344.738 C 335.899 343.676,336.163 343.356,335.863 343.356 C 335.796 343.356,335.229 343.923,334.602 344.617 M188.269 397.175 C 188.859 397.264,189.732 397.261,190.209 397.169 C 190.686 397.077,190.204 397.004,189.137 397.007 C 188.070 397.010,187.679 397.085,188.269 397.175 M209.608 397.175 C 210.197 397.264,211.070 397.261,211.548 397.169 C 212.025 397.077,211.542 397.004,210.475 397.007 C 209.408 397.010,209.018 397.085,209.608 397.175 " stroke="none" fill="#8562ad" fill-rule="evenodd"></path><path id="path4" d="" stroke="none" fill="#9f84bc" fill-rule="evenodd"></path><path id="path5" d="M170.509 173.230 C 170.509 204.384,170.555 217.186,170.611 201.679 C 170.667 186.172,170.667 160.682,170.611 145.035 C 170.555 129.388,170.509 142.076,170.509 173.230 M92.428 140.058 C 92.428 140.805,92.507 141.111,92.605 140.737 C 92.703 140.364,92.703 139.753,92.605 139.379 C 92.507 139.006,92.428 139.311,92.428 140.058 M150.048 261.380 C 150.529 261.472,151.314 261.472,151.794 261.380 C 152.274 261.287,151.882 261.211,150.921 261.211 C 149.961 261.211,149.568 261.287,150.048 261.380 M256.360 270.698 C 257.057 270.785,258.105 270.783,258.688 270.694 C 259.271 270.606,258.700 270.535,257.420 270.537 C 256.140 270.539,255.663 270.612,256.360 270.698 M216.668 290.204 C 216.668 300.553,216.718 304.787,216.779 299.612 C 216.841 294.437,216.841 285.970,216.779 280.795 C 216.718 275.621,216.668 279.855,216.668 290.204 M124.287 283.608 C 124.287 285.422,124.354 286.164,124.435 285.257 C 124.517 284.350,124.517 282.866,124.435 281.959 C 124.354 281.052,124.287 281.794,124.287 283.608 M272.490 288.458 C 272.491 290.165,272.560 290.815,272.642 289.902 C 272.723 288.990,272.722 287.593,272.639 286.799 C 272.556 286.004,272.489 286.751,272.490 288.458 M170.451 290.204 C 170.451 291.804,170.519 292.459,170.603 291.659 C 170.686 290.858,170.686 289.549,170.603 288.749 C 170.519 287.949,170.451 288.603,170.451 290.204 M176.639 290.398 C 176.642 291.465,176.717 291.855,176.806 291.265 C 176.895 290.676,176.893 289.803,176.801 289.325 C 176.709 288.848,176.636 289.331,176.639 290.398 M269.772 303.395 C 269.772 304.995,269.840 305.650,269.924 304.850 C 270.007 304.049,270.007 302.740,269.924 301.940 C 269.840 301.140,269.772 301.794,269.772 303.395 " stroke="none" fill="#b09ac7" fill-rule="evenodd"></path><path id="path6" d="M58.972 339.282 C 60.131 340.456,61.167 341.416,61.273 341.416 C 61.380 341.416,60.519 340.456,59.360 339.282 C 58.201 338.109,57.165 337.148,57.059 337.148 C 56.952 337.148,57.813 338.109,58.972 339.282 " stroke="none" fill="#c7b2d9" fill-rule="evenodd"></path><path id="path7" d="M79.326 116.877 C 79.224 117.144,79.187 142.677,79.242 173.618 L 79.343 229.874 79.439 173.313 L 79.534 116.751 88.227 116.863 C 93.008 116.924,96.839 116.843,96.740 116.683 C 96.407 116.146,79.532 116.334,79.326 116.877 M160.330 116.681 C 162.197 116.752,165.252 116.752,167.119 116.681 C 168.986 116.610,167.459 116.551,163.725 116.551 C 159.990 116.551,158.463 116.610,160.330 116.681 M214.064 116.683 C 222.013 116.741,235.019 116.741,242.968 116.683 C 250.917 116.624,244.413 116.576,228.516 116.576 C 212.619 116.576,206.115 116.624,214.064 116.683 M270.200 116.895 C 270.094 117.171,270.061 119.921,270.126 123.005 L 270.246 128.613 270.332 122.698 L 270.417 116.784 309.699 116.683 L 348.982 116.582 309.687 116.487 C 277.798 116.410,270.356 116.487,270.200 116.895 M92.525 185.451 C 92.525 209.884,92.572 219.879,92.628 207.662 C 92.685 195.446,92.685 175.456,92.628 163.240 C 92.572 151.023,92.525 161.018,92.525 185.451 M157.227 202.716 C 157.231 203.569,157.311 203.873,157.403 203.390 C 157.496 202.908,157.493 202.209,157.396 201.838 C 157.298 201.467,157.223 201.862,157.227 202.716 M132.086 263.531 L 130.553 265.179 132.202 263.646 C 133.735 262.220,134.029 261.882,133.735 261.882 C 133.672 261.882,132.930 262.624,132.086 263.531 M136.742 267.022 L 135.209 268.671 136.857 267.138 C 137.764 266.294,138.506 265.552,138.506 265.489 C 138.506 265.195,138.168 265.489,136.742 267.022 M222.696 275.267 C 222.696 277.365,222.809 278.970,222.946 278.832 C 223.216 278.562,223.141 271.896,222.864 271.619 C 222.772 271.527,222.696 273.168,222.696 275.267 M225.970 274.006 L 224.830 275.267 226.091 274.127 C 226.785 273.500,227.352 272.933,227.352 272.866 C 227.352 272.567,227.032 272.830,225.970 274.006 M266.537 273.642 C 266.537 273.709,267.105 274.276,267.798 274.903 L 269.059 276.043 267.920 274.782 C 266.857 273.606,266.537 273.343,266.537 273.642 M245.566 275.364 L 244.229 276.819 245.684 275.482 C 246.484 274.746,247.139 274.092,247.139 274.027 C 247.139 273.730,246.810 274.010,245.566 275.364 M188.462 275.735 C 188.945 275.828,189.643 275.824,190.014 275.727 C 190.385 275.630,189.990 275.554,189.137 275.559 C 188.283 275.563,187.980 275.642,188.462 275.735 M201.100 290.204 C 201.100 291.804,201.169 292.459,201.253 291.659 C 201.336 290.858,201.336 289.549,201.253 288.749 C 201.169 287.949,201.100 288.603,201.100 290.204 M239.898 290.592 C 239.898 292.192,239.966 292.847,240.050 292.047 C 240.134 291.246,240.134 289.937,240.050 289.137 C 239.966 288.337,239.898 288.991,239.898 290.592 M222.865 299.321 C 222.864 304.656,222.919 306.892,222.986 304.290 C 223.053 301.689,223.053 297.324,222.986 294.591 C 222.920 291.858,222.865 293.986,222.865 299.321 M188.077 304.840 C 188.774 304.926,189.822 304.924,190.405 304.836 C 190.988 304.747,190.417 304.677,189.137 304.679 C 187.856 304.681,187.379 304.754,188.077 304.840 " stroke="none" fill="#dbd0e6" fill-rule="evenodd"></path></g></svg>